<?xml version="1.0" encoding="UTF-8" standalone="no"?>
<!-- Generator: Adobe Illustrator 24.3.0, SVG Export Plug-In . SVG Version: 6.00 Build 0)  -->

<svg
   version="1.1"
   x="0px"
   y="0px"
   viewBox="0 0 599.99997 512.65002"
   xml:space="preserve"
   id="svg766"
   sodipodi:docname="rooms.svg"
   inkscape:version="1.1.2 (0a00cf5339, 2022-02-04)"
   width="600"
   height="512.65002"
   xmlns:inkscape="http://www.inkscape.org/namespaces/inkscape"
   xmlns:sodipodi="http://sodipodi.sourceforge.net/DTD/sodipodi-0.dtd"
   xmlns="http://www.w3.org/2000/svg"
   xmlns:svg="http://www.w3.org/2000/svg"><defs
   id="defs770">
	
	
	
	
	
	
	
	
	

		
		
		
		
		
		
		
		
		
		
		
		
	
		
		
		
		
		
		
		
		
		
		
			
		
		
		
		
		
		
			
		
		
			
		
		
		
		
		
		
		
		
		
		
		
	
			
			
			
		
			
			
		
			
			
		
			
			
		
			
			
		
			
			
			
			
		
			
			
			
			
		
			
			
			
			
			
		
			
			
		
			
			
			
			
			
		
			
			
			
			
			
				
			
		
			
			
		
			
			
		
			
			
			
			
			
			
			
			
		
				
				
				
				
				
				
				
				
				
				
				
				
				
				
				
				
				
			
			
				
			
			
			
			
		</defs><sodipodi:namedview
   id="namedview768"
   pagecolor="#ffffff"
   bordercolor="#666666"
   borderopacity="1.0"
   inkscape:pageshadow="2"
   inkscape:pageopacity="0.0"
   inkscape:pagecheckerboard="0"
   showgrid="false"
   inkscape:zoom="0.87833333"
   inkscape:cx="607.40038"
   inkscape:cy="281.78368"
   inkscape:window-width="1366"
   inkscape:window-height="714"
   inkscape:window-x="0"
   inkscape:window-y="0"
   inkscape:window-maximized="1"
   inkscape:current-layer="svg766" />
<style
   type="text/css"
   id="style2">
	.st0{fill:none;}
	.st1{fill:#E1ECF7;}
	.st2{fill:#454345;stroke:#000000;}
	.st3{fill:none;stroke:#000000;}
	.st4{fill:#FFFFFF;stroke:#696867;}
	.st5{fill:#FFFFFF;}
	.st6{fill:none;stroke:#696867;}
	.st7{fill:#020203;stroke:#020203;stroke-width:0.25;}
	.st8{fill:#020203;}
</style>


<g
   id="g2034"><g
     id="Слой_1"
     transform="rotate(-90,249.04072,268.90195)">
	<rect
   x="206.99001"
   y="118.71"
   class="st0"
   width="72.019997"
   height="69.620003"
   id="rect4" />
</g><path
     class="st2"
     d="m 41.23877,33.26267 h -16.81 v 320.9 h 16.81 v -167.78 h 50.15 v -9.87 h -50.15 v -116.04 h 156.65 v 115.84 h -65.42 v 10.2 h 109.63 v -1 -9.2 -115.84 -8.6 -2.33 h 308.49 v 26.94 h 26.81 v -38.81 h -0.53 v -3.07 h -338.78 v 1.07 h -196.85 z m 167.25,143.05 v -85.23 h 23.81 v 85.23 z m 23.8,-93.63 h -23.81 v -22.21 h 23.81 z"
     id="path10" /><polygon
     class="st2"
     points="239.2,597.06 280.82,597.06 280.82,570.85 255.81,570.85 255.81,482.42 249.01,482.42 249.01,325.18 255.41,325.18 255.41,241.95 248.21,241.95 248.21,203.54 247.81,203.54 238.6,203.54 229.8,203.54 229.8,213.54 238.6,213.54 238.6,248.35 239,248.35 239,325.18 239.4,325.18 239.4,486.02 240,486.02 240,570.85 239.2,570.85 "
     id="polygon12"
     transform="rotate(-90,249.04072,268.90195)" /><polygon
     class="st2"
     points="51.75,213.41 178.18,213.41 178.18,203.27 51.75,203.27 51.75,62.7 103.49,62.7 103.49,44.02 35.21,44.02 35.21,56.83 35.21,62.7 35.21,597.26 51.75,597.26 51.75,492.16 89.36,492.16 89.36,482.02 51.75,482.02 "
     id="polygon14"
     transform="rotate(-90,249.04072,268.90195)" /><line
     class="st3"
     x1="557.12878"
     y1="466.73267"
     x2="557.12878"
     y2="279.47266"
     id="line18" /><line
     class="st3"
     x1="577.19879"
     y1="278.74268"
     x2="577.19879"
     y2="466.19266"
     id="line20" /><line
     class="st3"
     x1="568.3288"
     y1="466.19266"
     x2="568.3288"
     y2="279.47266"
     id="line22" /><line
     class="st3"
     x1="565.65881"
     y1="236.79268"
     x2="565.65881"
     y2="76.742661"
     id="line24" /><line
     class="st3"
     x1="550.58881"
     y1="76.482681"
     x2="550.58881"
     y2="237.32268"
     id="line26" /><line
     class="st3"
     x1="577.19879"
     y1="237.12267"
     x2="577.19879"
     y2="76.482681"
     id="line28" /><rect
     x="-428.58267"
     y="462.15875"
     class="st3"
     width="86.959999"
     height="9.8699999"
     id="rect30"
     transform="rotate(-90)" /><line
     class="st3"
     x1="191.14876"
     y1="289.07266"
     x2="228.22876"
     y2="326.15268"
     id="line34" /><line
     class="st3"
     x1="91.378769"
     y1="186.38268"
     x2="121.12877"
     y2="216.12267"
     id="line36" /><line
     class="st3"
     x1="466.42877"
     y1="279.74268"
     x2="423.47876"
     y2="322.68268"
     id="line38" /><rect
     x="-90.482681"
     y="85.648773"
     class="st4"
     width="28.92"
     height="42.549999"
     id="rect41"
     transform="rotate(-90)" /><rect
     x="-256.23267"
     y="405.71875"
     class="st5"
     width="60.919998"
     height="128.66"
     id="rect43"
     transform="rotate(-90)" /><rect
     x="-255.70268"
     y="532.10876"
     class="st5"
     width="58.84"
     height="3.24"
     id="rect45"
     transform="rotate(-90)" /><rect
     x="-258.22266"
     y="406.71875"
     class="st5"
     width="2.52"
     height="126.71"
     id="rect47"
     transform="rotate(-90)" /><rect
     x="-196.43266"
     y="408.61877"
     class="st5"
     width="2.6199999"
     height="124.22"
     id="rect49"
     transform="rotate(-90)" /><g
     id="g97"
     transform="rotate(-90,249.04072,268.90195)">
				<line
   class="st6"
   x1="318.89999"
   y1="424.76001"
   x2="264.41"
   y2="424.76001"
   id="line51" />
				<line
   class="st6"
   x1="259.01001"
   y1="430.82999"
   x2="259.01001"
   y2="549.75"
   id="line53" />
				<line
   class="st6"
   x1="265.47"
   y1="555.65002"
   x2="318.89999"
   y2="555.65002"
   id="line55" />
				<line
   class="st6"
   x1="324.13"
   y1="550.92999"
   x2="324.13"
   y2="430.82999"
   id="line57" />
				<line
   class="st6"
   x1="318.89999"
   y1="441.63"
   x2="279.42001"
   y2="441.63"
   id="line59" />
				<line
   class="st6"
   x1="275.04001"
   y1="447.35999"
   x2="275.04001"
   y2="485.32001"
   id="line61" />
				<line
   class="st6"
   x1="281.28"
   y1="490.88"
   x2="318.89999"
   y2="490.88"
   id="line63" />
				<line
   class="st6"
   x1="275.04001"
   y1="495.60999"
   x2="275.04001"
   y2="534.40002"
   id="line65" />
				<line
   class="st6"
   x1="280.44"
   y1="538.62"
   x2="318.89999"
   y2="538.62"
   id="line67" />
				<path
   class="st6"
   d="m 318.9,424.76 c 2.88,0 5.23,2.73 5.23,6.08"
   id="path69" />
				<path
   class="st6"
   d="m 318.47,441.63 c 3.14,0 5.66,2.34 5.66,5.23"
   id="path71" />
				<path
   class="st6"
   d="m 318.9,490.88 c 2.88,0 5.23,2.11 5.23,4.73"
   id="path73" />
				<path
   class="st6"
   d="m 281.28,490.88 c -3.45,0 -6.24,2.11 -6.24,4.73"
   id="path75" />
				<path
   class="st6"
   d="m 279.93,441.63 c -2.71,0 -4.89,2.57 -4.89,5.73"
   id="path77" />
				<path
   class="st6"
   d="m 280.44,538.62 c -2.99,0 -5.4,-1.89 -5.4,-4.22"
   id="path79" />
				<path
   class="st6"
   d="m 318.9,538.62 c 2.88,0 5.23,2.38 5.23,5.34"
   id="path81" />
				<path
   class="st6"
   d="m 318.9,555.65 c 2.88,0 5.23,-2.1 5.23,-4.72"
   id="path83" />
				<path
   class="st6"
   d="m 265.47,555.65 c -3.57,0 -6.46,-2.64 -6.46,-5.9"
   id="path85" />
				<path
   class="st6"
   d="m 319.46,538.64 c 2.59,0 4.67,-1.9 4.67,-4.24"
   id="path87" />
				<path
   class="st6"
   d="m 319.46,490.29 c 2.59,0 4.67,-2.23 4.67,-4.98"
   id="path89" />
				<path
   class="st6"
   d="m 319.46,441.63 c 2.59,0 4.67,-1.91 4.67,-4.27"
   id="path91" />
				<path
   class="st6"
   d="m 281.28,490.88 c -3.45,0 -6.24,-2.49 -6.24,-5.56"
   id="path93" />
				<path
   class="st6"
   d="m 264.41,424.76 c -2.98,0 -5.4,2.73 -5.4,6.08"
   id="path95" />
			</g><rect
     x="-465.22266"
     y="308.80878"
     class="st5"
     width="121.86"
     height="95.040001"
     id="rect101"
     transform="rotate(-90)" /><rect
     x="-465.22266"
     y="273.63876"
     class="st5"
     width="24.110001"
     height="33.25"
     id="rect103"
     transform="rotate(-90)" /><rect
     x="-444.69266"
     y="414.82877"
     class="st5"
     width="5.5100002"
     height="14.27"
     id="rect105"
     transform="rotate(-90)" /><rect
     x="-465.22266"
     y="405.22876"
     class="st5"
     width="24.110001"
     height="33.459999"
     id="rect107"
     transform="rotate(-90)" /><rect
     x="-443.02267"
     y="283.23877"
     class="st5"
     width="3.73"
     height="14.28"
     id="rect109"
     transform="rotate(-90)" /><rect
     x="-465.22266"
     y="308.80878"
     class="st6"
     width="121.86"
     height="95.040001"
     id="rect111"
     transform="rotate(-90)" /><rect
     x="-460.31268"
     y="310.72876"
     class="st6"
     width="113.32"
     height="90.980003"
     id="rect113"
     transform="rotate(-90)" /><line
     class="st6"
     x1="310.71875"
     y1="418.70267"
     x2="330.11877"
     y2="407.49268"
     id="line115" /><line
     class="st6"
     x1="330.11877"
     y1="407.49268"
     x2="338.10876"
     y2="434.38266"
     id="line117" /><line
     class="st6"
     x1="338.10876"
     y1="434.38266"
     x2="310.71875"
     y2="418.70267"
     id="line119" /><line
     class="st6"
     x1="338.10876"
     y1="434.38266"
     x2="374.86877"
     y2="434.38266"
     id="line121" /><line
     class="st6"
     x1="374.86877"
     y1="434.38266"
     x2="382.84875"
     y2="407.49268"
     id="line123" /><line
     class="st6"
     x1="382.84875"
     y1="407.49268"
     x2="401.70877"
     y2="418.70267"
     id="line125" /><line
     class="st6"
     x1="401.70877"
     y1="418.70267"
     x2="374.86877"
     y2="434.38266"
     id="line127" /><line
     class="st6"
     x1="379.39877"
     y1="431.74268"
     x2="398.40875"
     y2="431.74268"
     id="line129" /><line
     class="st6"
     x1="398.40875"
     y1="431.74268"
     x2="398.40875"
     y2="457.65268"
     id="line131" /><line
     class="st6"
     x1="398.40875"
     y1="457.65268"
     x2="363.24875"
     y2="457.64267"
     id="line133" /><line
     class="st6"
     x1="363.24875"
     y1="457.64267"
     x2="363.24875"
     y2="434.38266"
     id="line135" /><line
     class="st6"
     x1="348.86877"
     y1="434.38266"
     x2="348.86877"
     y2="457.65268"
     id="line137" /><line
     class="st6"
     x1="348.86877"
     y1="457.65268"
     x2="313.59875"
     y2="457.64267"
     id="line139" /><line
     class="st6"
     x1="313.59875"
     y1="457.64267"
     x2="313.59875"
     y2="431.74268"
     id="line141" /><line
     class="st6"
     x1="313.59875"
     y1="431.74268"
     x2="333.20877"
     y2="431.74268"
     id="line143" /><g
     id="g151"
     transform="rotate(-90,249.04072,268.90195)">
				<rect
   x="52.720001"
   y="293.5"
   class="st6"
   width="24.110001"
   height="33.25"
   id="rect147" />
				<rect
   x="76.459999"
   y="303.10001"
   class="st6"
   width="2.1800001"
   height="14.28"
   id="rect149" />
			</g><g
     id="g157"
     transform="rotate(-90,249.04072,268.90195)">
				<rect
   x="52.720001"
   y="425.09"
   class="st6"
   width="24.110001"
   height="33.459999"
   id="rect153" />
				<rect
   x="76.830002"
   y="434.69"
   class="st6"
   width="1.9299999"
   height="14.27"
   id="rect155" />
			</g><rect
     x="41.904076"
     y="296.14777"
     class="st4"
     width="15.15"
     height="48.689999"
     id="rect161" /><line
     class="st6"
     x1="42.698772"
     y1="303.76266"
     x2="45.788773"
     y2="303.76266"
     id="line163" /><line
     class="st6"
     x1="42.698772"
     y1="314.35266"
     x2="45.788773"
     y2="314.35266"
     id="line165" /><line
     class="st6"
     x1="42.698772"
     y1="324.57266"
     x2="45.788773"
     y2="324.57266"
     id="line167" /><line
     class="st6"
     x1="42.698772"
     y1="335.89267"
     x2="45.788773"
     y2="335.89267"
     id="line169" /><rect
     x="-168.50267"
     y="42.158772"
     class="st5"
     width="107.09"
     height="43.189999"
     id="rect173"
     transform="rotate(-90)" /><g
     id="g199"
     transform="rotate(-90,249.04072,268.90195)">
				<rect
   x="349.44"
   y="62.369999"
   class="st6"
   width="107.09"
   height="43.18"
   id="rect175" />
				<rect
   x="442.82999"
   y="84.860001"
   class="st6"
   width="3.77"
   height="8.79"
   id="rect177" />
				<rect
   x="435.54001"
   y="82.360001"
   class="st6"
   width="9.1800003"
   height="2.5"
   id="rect179" />
				<path
   class="st6"
   d="m 446.6,70.66 c 1.57,0 2.83,1.16 2.83,2.62 0,1.44 -1.26,2.6 -2.83,2.6 -1.55,0 -2.82,-1.16 -2.82,-2.6 0,-1.46 1.27,-2.62 2.82,-2.62 z"
   id="path181" />
				<line
   class="st6"
   x1="446.60001"
   y1="84.860001"
   x2="446.60001"
   y2="75.550003"
   id="line183" />
				<line
   class="st6"
   x1="441"
   y1="66.309998"
   x2="441"
   y2="82.360001"
   id="line185" />
				<line
   class="st6"
   x1="441"
   y1="84.860001"
   x2="441"
   y2="101.55"
   id="line187" />
				<line
   class="st6"
   x1="441"
   y1="101.55"
   x2="364.23999"
   y2="101.55"
   id="line189" />
				<line
   class="st6"
   x1="354.73999"
   y1="76.800003"
   x2="354.73999"
   y2="91.959999"
   id="line191" />
				<line
   class="st6"
   x1="363.37"
   y1="66.309998"
   x2="441"
   y2="66.309998"
   id="line193" />
				<path
   class="st6"
   d="m 363.37,66.31 c -4.79,0 -8.64,4.68 -8.64,10.49"
   id="path195" />
				<path
   class="st6"
   d="m 364.63,101.55 c -5.47,0 -9.9,-4.28 -9.9,-9.59"
   id="path197" />
			</g><g
     id="g221"
     transform="rotate(-90,249.04072,268.90195)">
			<rect
   x="341.97"
   y="187.3"
   class="st5"
   width="29.07"
   height="29.9"
   id="rect203" />
			<g
   id="g219">
				<rect
   x="341.97"
   y="186.89999"
   class="st5"
   width="29.07"
   height="30.290001"
   id="rect205" />
				<g
   id="g217">
					<rect
   x="341.97"
   y="187.3"
   class="st6"
   width="29.07"
   height="29.540001"
   id="rect207" />
					<rect
   x="341.97"
   y="190.17"
   class="st6"
   width="4.3699999"
   height="10.87"
   id="rect209" />
					<path
   class="st6"
   d="m 346.33,208.85 c 1.33,0 2.41,1.08 2.41,2.41 0,1.33 -1.08,2.4 -2.41,2.4 -1.33,0.01 -2.4,-1.07 -2.4,-2.4 0,-1.33 1.08,-2.41 2.4,-2.41 z"
   id="path211" />
					<path
   class="st6"
   d="m 358.19,193.87 c 4.8,0 8.69,3.89 8.69,8.69 0,4.8 -3.89,8.7 -8.69,8.7 -4.81,0 -8.7,-3.9 -8.7,-8.7 0,-4.8 3.89,-8.69 8.7,-8.69 z"
   id="path213" />
					<path
   class="st6"
   d="m 358.18,197.08 c 3.02,0 5.49,2.45 5.49,5.48 0,3.03 -2.46,5.48 -5.48,5.48 -3.03,0 -5.48,-2.46 -5.48,-5.48 -0.01,-3.03 2.44,-5.48 5.47,-5.48 z"
   id="path215" />
				</g>
			</g>
		</g><path
     class="st4"
     d="m 520.39877,437.94267 c -8.59,9.32 -23.1,9.91 -32.42,1.33 -9.32,-8.59 -9.92,-23.11 -1.32,-32.43 8.59,-9.31 23.11,-9.9 32.43,-1.32 9.3,8.59 9.89,23.11 1.31,32.42 z"
     id="path223" /><path
     class="st4"
     d="m 489.31877,410.48267 c -3.14,3.4 -9.65,17.19 3.78,27.12 13.42,9.93 25.53,-2.78 26.92,-5.75"
     id="path225" /><path
     class="st4"
     d="m 491.95877,379.46267 c -11.91,-4.34 -18.04,-17.51 -13.7,-29.41 4.34,-11.91 17.51,-18.04 29.42,-13.7 11.9,4.34 18.03,17.52 13.69,29.42 -4.33,11.9 -17.5,18.03 -29.41,13.69 z"
     id="path229" /><path
     class="st4"
     d="m 505.35877,340.20267 c -4.34,-1.59 -19.57,-2.29 -23.57,13.92 -4,16.21 12.39,22.49 15.66,22.64"
     id="path231" /><g
     id="g261"
     transform="rotate(-90,249.04072,268.90195)">
			<path
   class="st5"
   d="m 418.11,174.9 c -0.31,3.52 -0.18,7.05 -0.13,10.57 2.91,3.4 8.56,5.71 15.06,5.71 9.48,0 17.16,-4.89 17.16,-10.92 0,-6.03 -7.68,-10.92 -17.16,-10.92 -6.41,0.01 -11.98,2.24 -14.93,5.56 z"
   id="path235" />
			<rect
   x="441.76999"
   y="170.39"
   class="st5"
   width="10.54"
   height="19.450001"
   id="rect237" />
			<g
   id="g259">
				<rect
   x="444.26999"
   y="170.39"
   class="st6"
   width="8.04"
   height="19.959999"
   id="rect239" />
				<path
   class="st6"
   d="m 433.04,169.17 c 4.84,0 8.73,0.68 8.73,1.52"
   id="path241" />
				<path
   class="st6"
   d="m 433.04,169.17 c -8.55,0 -15.46,3.56 -15.46,7.95"
   id="path243" />
				<path
   class="st6"
   d="m 430.87,190.86 c -7.36,0 -13.3,-3.01 -13.3,-6.72"
   id="path245" />
				<path
   class="st6"
   d="m 430.87,190.86 c 6.02,0 10.89,-0.45 10.89,-1.01"
   id="path247" />
				<line
   class="st6"
   x1="417.57001"
   y1="177.12"
   x2="417.57001"
   y2="184.14"
   id="line249" />
				<line
   class="st6"
   x1="441.76999"
   y1="170.69"
   x2="441.76999"
   y2="189.85001"
   id="line251" />
				<line
   class="st6"
   x1="444.26999"
   y1="170.86"
   x2="441.76999"
   y2="170.86"
   id="line253" />
				<line
   class="st6"
   x1="441.76999"
   y1="189.85001"
   x2="444.09"
   y2="189.85001"
   id="line255" />
				<path
   class="st6"
   d="m 448.14,178.3 c 1.32,0 2.4,1.03 2.4,2.3 0,1.27 -1.08,2.3 -2.4,2.3 -1.33,0 -2.41,-1.03 -2.41,-2.3 0,-1.27 1.08,-2.3 2.41,-2.3 z"
   id="path257" />
			</g>
		</g><rect
     x="128.19615"
     y="61.559063"
     class="st4"
     width="69.620003"
     height="11.29"
     id="rect263" /><g
     id="g279"
     transform="rotate(-90,249.04072,268.90195)">
			<rect
   x="432.66"
   y="109.77"
   class="st5"
   width="24.200001"
   height="33.619999"
   id="rect265" />
			<g
   id="g277">
				<rect
   x="432.66"
   y="109.62"
   class="st6"
   width="24.200001"
   height="33.630001"
   id="rect267" />
				<rect
   x="452.14999"
   y="109.62"
   class="st6"
   width="4.71"
   height="33.380001"
   id="rect269" />
				<rect
   x="444.14001"
   y="125.63"
   class="st6"
   width="8.0100002"
   height="1.9"
   id="rect271" />
				<path
   class="st6"
   d="m 441.61,115.27 c 4.18,0 7.56,5.04 7.56,11.28 0,6.22 -3.39,11.28 -7.56,11.28 -4.18,0 -7.56,-5.06 -7.56,-11.28 0.01,-6.23 3.38,-11.28 7.56,-11.28 z"
   id="path273" />
				<path
   class="st6"
   d="m 441.24,124.32 c 1.16,0 2.11,0.95 2.11,2.11 0,1.16 -0.95,2.11 -2.11,2.11 -1.17,0 -2.12,-0.95 -2.12,-2.11 0.01,-1.16 0.96,-2.11 2.12,-2.11 z"
   id="path275" />
			</g>
		</g><rect
     x="-465.92267"
     y="43.128773"
     class="st6"
     width="33.610001"
     height="138.35001"
     id="rect281"
     transform="rotate(-90)" /><g
     id="g311"
     transform="rotate(-90,249.04072,268.90195)">
				<rect
   x="51.779999"
   y="63.580002"
   class="st5"
   width="33.610001"
   height="138.35001"
   id="rect283" />
				<rect
   x="57.099998"
   y="103.97"
   class="st6"
   width="21.190001"
   height="2.3399999"
   id="rect285" />
				<polygon
   class="st6"
   points="78.34,114.9 78.03,112.6 57.06,115.83 57.36,118.14 "
   id="polygon287" />
				<rect
   x="56.580002"
   y="124.57"
   class="st6"
   width="21.190001"
   height="2.3499999"
   id="rect289" />
				<polygon
   class="st6"
   points="77.82,135.51 77.52,133.2 56.54,136.44 56.85,138.74 "
   id="polygon291" />
				<polygon
   class="st6"
   points="78.76,95.88 78.45,93.57 57.48,96.8 57.78,99.12 "
   id="polygon293" />
				<polygon
   class="st6"
   points="78.34,86.32 78.03,84 57.06,87.25 57.36,89.55 "
   id="polygon295" />
				<polygon
   class="st6"
   points="78.76,77.6 78.56,75.27 57.46,77.45 57.67,79.78 "
   id="polygon297" />
				<line
   class="st6"
   x1="67.699997"
   y1="71.720001"
   x2="67.699997"
   y2="193.59"
   id="line299" />
				<rect
   x="51.779999"
   y="67.709999"
   class="st6"
   width="33.610001"
   height="129.67"
   id="rect301" />
				<rect
   x="56.540001"
   y="148.08"
   class="st6"
   width="21.190001"
   height="2.3399999"
   id="rect303" />
				<polygon
   class="st6"
   points="77.78,159.01 77.48,156.71 56.5,159.93 56.8,162.25 "
   id="polygon305" />
				<rect
   x="56.029999"
   y="168.67"
   class="st6"
   width="21.190001"
   height="2.3499999"
   id="rect307" />
				<polygon
   class="st6"
   points="77.26,179.61 76.96,177.3 55.99,180.54 56.29,182.85 "
   id="polygon309" />
			</g><g
     id="g319"
     transform="rotate(-90,249.04072,268.90195)">
				
					<rect
   x="379.70999"
   y="331.48001"
   transform="matrix(0.7071,0.7071,-0.7071,0.7071,356.3079,-176.2694)"
   class="st4"
   width="22.440001"
   height="20.969999"
   id="rect315" />
				
					<rect
   x="378.59"
   y="334.19"
   transform="matrix(0.7071,0.7071,-0.7071,0.7071,356.7727,-175.1472)"
   class="st4"
   width="22.440001"
   height="17.799999"
   id="rect317" />
			</g><g
     id="g325"
     transform="rotate(-90,249.04072,268.90195)">
				
					<rect
   x="379.69"
   y="380.23999"
   transform="matrix(-0.7071,0.7071,-0.7071,-0.7071,943.6215,390.5965)"
   class="st4"
   width="22.440001"
   height="20.969999"
   id="rect321" />
				
					<rect
   x="378.57001"
   y="380.70999"
   transform="matrix(-0.7071,0.7071,-0.7071,-0.7071,940.9124,389.4743)"
   class="st4"
   width="22.440001"
   height="17.799999"
   id="rect323" />
			</g><g
     id="g331"
     transform="rotate(-90,249.04072,268.90195)">
				
					<rect
   x="331.81"
   y="332.45999"
   transform="matrix(0.7071,-0.7071,0.7071,0.7071,-142.028,343.0089)"
   class="st4"
   width="22.440001"
   height="20.969999"
   id="rect327" />
				
					<rect
   x="332.92999"
   y="335.17001"
   transform="matrix(0.7071,-0.7071,0.7071,0.7071,-142.4929,344.1311)"
   class="st4"
   width="22.440001"
   height="17.799999"
   id="rect329" />
			</g><g
     id="g337"
     transform="rotate(-90,249.04072,268.90195)">
				
					<rect
   x="331.41"
   y="380.07999"
   transform="matrix(-0.7071,-0.7071,0.7071,-0.7071,308.7443,909.0099)"
   class="st4"
   width="22.440001"
   height="20.969999"
   id="rect333" />
				
					<rect
   x="332.53"
   y="380.54001"
   transform="matrix(-0.7071,-0.7071,0.7071,-0.7071,311.4534,907.8878)"
   class="st4"
   width="22.440001"
   height="17.799999"
   id="rect335" />
			</g><circle
     class="st4"
     cx="-150.90266"
     cy="346.38876"
     r="26.27"
     id="circle339"
     transform="rotate(-90)" /><rect
     x="-466.31268"
     y="194.22876"
     class="st6"
     width="108.95"
     height="32.970001"
     id="rect343"
     transform="rotate(-90)" /><g
     id="g373"
     transform="rotate(-90,249.04072,268.90195)">
				<rect
   x="51.16"
   y="213.84"
   class="st5"
   width="108.95"
   height="32.970001"
   id="rect345" />
				<rect
   x="126.46"
   y="219.07001"
   class="st6"
   width="1.84"
   height="20.790001"
   id="rect347" />
				<polygon
   class="st6"
   points="119.69,239.9 121.51,239.6 118.97,219.02 117.14,219.32 "
   id="polygon349" />
				<rect
   x="110.23"
   y="218.56"
   class="st6"
   width="1.85"
   height="20.790001"
   id="rect351" />
				<polygon
   class="st6"
   points="103.47,239.39 105.29,239.1 102.74,218.52 100.93,218.82 "
   id="polygon353" />
				<polygon
   class="st6"
   points="134.68,240.31 136.5,240.01 133.95,219.44 132.12,219.73 "
   id="polygon355" />
				<polygon
   class="st6"
   points="142.2,239.9 144.03,239.6 141.47,219.02 139.66,219.32 "
   id="polygon357" />
				<polygon
   class="st6"
   points="149.07,240.32 150.9,240.12 149.19,219.42 147.36,219.62 "
   id="polygon359" />
				<line
   class="st6"
   x1="153.7"
   y1="229.46001"
   x2="57.73"
   y2="229.46001"
   id="line361" />
				<rect
   x="54.75"
   y="213.84"
   class="st6"
   width="102.11"
   height="32.970001"
   id="rect363" />
				<rect
   x="91.730003"
   y="218.52"
   class="st6"
   width="1.84"
   height="20.790001"
   id="rect365" />
				<polygon
   class="st6"
   points="84.96,239.35 86.78,239.06 84.24,218.48 82.41,218.77 "
   id="polygon367" />
				<rect
   x="75.5"
   y="218.00999"
   class="st6"
   width="1.85"
   height="20.790001"
   id="rect369" />
				<polygon
   class="st6"
   points="68.74,238.84 70.56,238.55 68.01,217.98 66.19,218.27 "
   id="polygon371" />
			</g><rect
     x="-299.26266"
     y="41.788773"
     class="st6"
     width="112.83"
     height="34.139999"
     id="rect377"
     transform="rotate(-90)" /><g
     id="g407"
     transform="rotate(-90,249.04072,268.90195)">
				<rect
   x="218.2"
   y="61.389999"
   class="st5"
   width="112.83"
   height="34.139999"
   id="rect379" />
				<rect
   x="296.17999"
   y="66.800003"
   class="st6"
   width="1.91"
   height="21.530001"
   id="rect381" />
				<polygon
   class="st6"
   points="289.17,88.38 291.05,88.07 288.42,66.76 286.53,67.06 "
   id="polygon383" />
				<rect
   x="279.37"
   y="66.279999"
   class="st6"
   width="1.92"
   height="21.530001"
   id="rect385" />
				<polygon
   class="st6"
   points="272.37,87.85 274.26,87.55 271.61,66.24 269.73,66.55 "
   id="polygon387" />
				<polygon
   class="st6"
   points="304.69,88.8 306.57,88.49 303.93,67.19 302.04,67.49 "
   id="polygon389" />
				<polygon
   class="st6"
   points="312.48,88.38 314.37,88.07 311.73,66.76 309.85,67.06 "
   id="polygon391" />
				<polygon
   class="st6"
   points="319.6,88.81 321.49,88.61 319.72,67.17 317.82,67.38 "
   id="polygon393" />
				<line
   class="st6"
   x1="324.39001"
   y1="77.57"
   x2="225.00999"
   y2="77.57"
   id="line395" />
				<rect
   x="221.91"
   y="61.389999"
   class="st6"
   width="105.75"
   height="34.139999"
   id="rect397" />
				<rect
   x="260.20999"
   y="66.239998"
   class="st6"
   width="1.91"
   height="21.530001"
   id="rect399" />
				<polygon
   class="st6"
   points="253.2,87.81 255.08,87.5 252.45,66.19 250.56,66.5 "
   id="polygon401" />
				<rect
   x="243.41"
   y="65.709999"
   class="st6"
   width="1.92"
   height="21.530001"
   id="rect403" />
				<polygon
   class="st6"
   points="236.4,87.28 238.29,86.98 235.65,65.67 233.77,65.98 "
   id="polygon405" />
			</g><rect
     x="-397.80646"
     y="-301.88025"
     transform="scale(-1)"
     class="st4"
     width="79.290001"
     height="21.530001"
     id="rect411" /><g
     id="g435"
     transform="rotate(-90,249.04072,268.90195)">
			<rect
   x="224.61"
   y="352.89999"
   class="st5"
   width="2.46"
   height="51.060001"
   id="rect413" />
			<rect
   x="226.63"
   y="374.04001"
   class="st5"
   width="4.9099998"
   height="8.7200003"
   id="rect415" />
			<rect
   x="226.86"
   y="365.45001"
   class="st5"
   width="2.1900001"
   height="26.219999"
   id="rect417" />
			<polygon
   class="st5"
   points="227.27,391.04 229.05,391.52 227.49,397.19 225.71,396.7 "
   id="polygon419" />
			
				<rect
   x="226.45"
   y="360.10999"
   transform="matrix(0.9692,-0.2461,0.2461,0.9692,-82.3632,67.132)"
   class="st5"
   width="1.85"
   height="5.8699999"
   id="rect421" />
			<g
   id="g433">
				<rect
   x="224.61"
   y="352.89999"
   class="st6"
   width="2.46"
   height="51.060001"
   id="rect423" />
				<line
   class="st6"
   x1="229.05"
   y1="391.67001"
   x2="229.05"
   y2="365.45001"
   id="line425" />
				<line
   class="st6"
   x1="229.05"
   y1="365.45001"
   x2="227.06"
   y2="357.70001"
   id="line427" />
				<line
   class="st6"
   x1="229.05"
   y1="391.67001"
   x2="227.06"
   y2="399.09"
   id="line429" />
				<rect
   x="229.05"
   y="374.04001"
   class="st6"
   width="2.49"
   height="8.7200003"
   id="rect431" />
			</g>
		</g><rect
     x="-531.5174"
     y="-71.506439"
     transform="scale(-1)"
     class="st4"
     width="117.9"
     height="21.530001"
     id="rect437" /><rect
     x="-62.732677"
     y="440.24875"
     class="st5"
     width="3.1199999"
     height="64.860001"
     id="rect439"
     transform="rotate(-90)" /><rect
     x="-60.16267"
     y="467.08878"
     class="st5"
     width="6.23"
     height="11.08"
     id="rect441"
     transform="rotate(-90)" /><rect
     x="-59.862682"
     y="456.17877"
     class="st5"
     width="2.78"
     height="33.310001"
     id="rect443"
     transform="rotate(-90)" /><polygon
     class="st5"
     points="458.88,516.36 456.61,515.75 458.59,508.55 460.85,509.16 "
     id="polygon445"
     transform="rotate(-90,249.04072,268.90195)" /><rect
     x="-170.12225"
     y="420.87643"
     transform="rotate(-104.24748)"
     class="st5"
     width="2.3498986"
     height="7.4596786"
     id="rect447"
     style="stroke-width:0.999957" /><g
     id="g459"
     transform="rotate(-90,249.04072,268.90195)">
				<rect
   x="455.20999"
   y="460.10999"
   class="st6"
   width="3.1199999"
   height="64.860001"
   id="rect449" />
				<line
   class="st6"
   x1="460.85999"
   y1="509.35001"
   x2="460.85999"
   y2="476.04001"
   id="line451" />
				<line
   class="st6"
   x1="460.85999"
   y1="476.04001"
   x2="458.32999"
   y2="466.20001"
   id="line453" />
				<line
   class="st6"
   x1="460.85999"
   y1="509.35001"
   x2="458.32999"
   y2="518.78003"
   id="line455" />
				<rect
   x="460.85999"
   y="486.95001"
   class="st6"
   width="3.1600001"
   height="11.08"
   id="rect457" />
			</g><polygon
     class="st4"
     points="331.83,297.17 431.06,297.17 431.06,406.4 466.67,406.4 466.67,297.17 467.07,297.17 467.07,263.16 331.83,263.16 "
     id="polygon463"
     transform="rotate(-90,249.04072,268.90195)" /><rect
     x="-86.902664"
     y="312.09875"
     class="st5"
     width="35.889999"
     height="35.279999"
     id="rect465"
     transform="rotate(-90)" /><g
     id="g487"
     transform="rotate(-90,249.04072,268.90195)">
				<rect
   x="431.04001"
   y="331.95999"
   class="st6"
   width="35.889999"
   height="35.279999"
   id="rect467" />
				<path
   class="st6"
   d="m 451.53,342.04 c 0,3.64 2.96,6.61 6.61,6.61 3.64,0 6.61,-2.97 6.61,-6.61 0,-3.66 -2.96,-6.62 -6.61,-6.62 -3.64,0 -6.61,2.96 -6.61,6.62 z"
   id="path469" />
				<path
   class="st6"
   d="m 458.14,337.15 c -2.7,0 -4.88,2.19 -4.88,4.88 0,2.69 2.18,4.88 4.88,4.88 2.7,0 4.88,-2.19 4.88,-4.88 0.01,-2.69 -2.18,-4.88 -4.88,-4.88 z"
   id="path471" />
				<path
   class="st6"
   d="m 443.15,335.42 c -3.72,0 -6.73,3.03 -6.73,6.74 0,3.72 3.02,6.74 6.73,6.74 3.72,0 6.74,-3.01 6.74,-6.74 0,-3.72 -3.02,-6.74 -6.74,-6.74 z"
   id="path473" />
				<path
   class="st6"
   d="m 458.14,350.95 c -3.69,0 -6.68,2.99 -6.68,6.69 0,3.7 2.99,6.69 6.68,6.69 3.7,0 6.69,-3 6.69,-6.69 -0.01,-3.7 -3,-6.69 -6.69,-6.69 z"
   id="path475" />
				<path
   class="st6"
   d="m 458.14,353.52 c -2.27,0 -4.12,1.84 -4.12,4.12 0,2.28 1.85,4.11 4.12,4.11 2.28,0 4.13,-1.83 4.13,-4.11 0,-2.28 -1.86,-4.12 -4.13,-4.12 z"
   id="path477" />
				<path
   class="st6"
   d="m 443.71,352.36 c -2.93,0 -5.29,2.36 -5.29,5.27 0,2.92 2.36,5.29 5.29,5.29 2.91,0 5.28,-2.37 5.28,-5.29 0,-2.91 -2.37,-5.27 -5.28,-5.27 z"
   id="path479" />
				<path
   class="st6"
   d="m 432.78,348.9 c 0,0.97 0.78,1.76 1.76,1.76 0.96,0 1.75,-0.79 1.75,-1.76 0,-0.97 -0.78,-1.75 -1.75,-1.75 -0.98,-0.01 -1.76,0.77 -1.76,1.75 z"
   id="path481" />
				<path
   class="st6"
   d="m 434.53,352.11 c -0.97,0 -1.76,0.78 -1.76,1.74 0,0.97 0.78,1.76 1.76,1.76 0.96,0 1.75,-0.79 1.75,-1.76 0,-0.97 -0.78,-1.74 -1.75,-1.74 z"
   id="path483" />
				<path
   class="st6"
   d="m 434.53,357.06 c -0.97,0 -1.76,0.79 -1.76,1.75 0,0.97 0.78,1.75 1.76,1.75 0.96,0 1.75,-0.78 1.75,-1.75 0,-0.97 -0.78,-1.75 -1.75,-1.75 z"
   id="path485" />
			</g><rect
     x="-109.67268"
     y="248.89877"
     class="st5"
     width="28.870001"
     height="25.049999"
     id="rect491"
     transform="rotate(-90)" /><rect
     x="-82.062668"
     y="249.58878"
     class="st5"
     width="2.01"
     height="23.389999"
     id="rect493"
     transform="rotate(-90)" /><rect
     x="-110.72267"
     y="249.34875"
     class="st5"
     width="1.05"
     height="24.129999"
     id="rect495"
     transform="rotate(-90)" /><g
     id="g533"
     transform="rotate(-90,249.04072,268.90195)">
				<line
   class="st6"
   x1="435.63"
   y1="268.35999"
   x2="409.29999"
   y2="268.35999"
   id="line497" />
				<line
   class="st6"
   x1="406.79001"
   y1="271.53"
   x2="406.79001"
   y2="291.32999"
   id="line499" />
				<line
   class="st6"
   x1="409.29999"
   y1="294.06"
   x2="435.03"
   y2="294.06"
   id="line501" />
				<line
   class="st6"
   x1="434.37"
   y1="292.22"
   x2="410.32001"
   y2="292.22"
   id="line503" />
				<line
   class="st6"
   x1="408.89001"
   y1="275.10001"
   x2="408.89001"
   y2="290.84"
   id="line505" />
				<line
   class="st6"
   x1="435.88"
   y1="290.84"
   x2="435.88"
   y2="275.10001"
   id="line507" />
				<line
   class="st6"
   x1="434.37"
   y1="273.45001"
   x2="410.32001"
   y2="273.45001"
   id="line509" />
				<path
   class="st6"
   d="m 435.88,275.1 c 0,-0.9 -0.67,-1.65 -1.51,-1.65"
   id="path511" />
				<path
   class="st6"
   d="m 408.89,275.1 c 0,-0.9 0.65,-1.65 1.43,-1.65"
   id="path513" />
				<path
   class="st6"
   d="m 408.89,290.84 c 0,0.76 0.65,1.37 1.43,1.37"
   id="path515" />
				<path
   class="st6"
   d="m 435.88,290.84 c 0,0.89 -0.67,1.6 -1.51,1.6"
   id="path517" />
				<line
   class="st6"
   x1="438.26001"
   y1="270.54001"
   x2="438.26001"
   y2="291.64999"
   id="line519" />
				<path
   class="st6"
   d="m 438.26,270.54 c 0,-1.21 -1.18,-2.2 -2.63,-2.2"
   id="path521" />
				<path
   class="st6"
   d="m 406.79,291.33 c 0,1.51 1.12,2.73 2.52,2.73"
   id="path523" />
				<path
   class="st6"
   d="m 438.26,291.65 c 0,1.33 -1.44,2.42 -3.23,2.42"
   id="path525" />
				<path
   class="st6"
   d="m 406.79,271.53 c 0,-1.75 1.12,-3.17 2.52,-3.17"
   id="path527" />
				<path
   class="st6"
   d="m 420.29,283.47 c 0,0.93 0.76,1.7 1.7,1.7 0.93,0 1.69,-0.77 1.69,-1.7 0,-0.93 -0.76,-1.69 -1.69,-1.69 -0.94,0 -1.7,0.76 -1.7,1.69 z"
   id="path529" />
				<rect
   x="421.04999"
   y="270.91"
   class="st6"
   width="2.22"
   height="7.4200001"
   id="rect531" />
			</g><rect
     x="-185.51268"
     y="246.16876"
     class="st5"
     width="34.669998"
     height="34.75"
     id="rect537"
     transform="rotate(-90)" /><rect
     x="-183.83269"
     y="243.81876"
     class="st5"
     width="31.23"
     height="5.6900001"
     id="rect539"
     transform="rotate(-90)" /><rect
     x="-163.49266"
     y="276.16876"
     class="st5"
     width="11.56"
     height="7.25"
     id="rect541"
     transform="rotate(-90)" /><g
     id="g581"
     transform="rotate(-90,249.04072,268.90195)">
				<rect
   x="332.17999"
   y="266.03"
   class="st6"
   width="34.919998"
   height="34.75"
   id="rect543" />
				<rect
   x="354.45001"
   y="300.39999"
   class="st6"
   width="11.56"
   height="2.8800001"
   id="rect545" />
				<rect
   x="333.82999"
   y="263.67999"
   class="st6"
   width="31.52"
   height="1.97"
   id="rect547" />
				<line
   class="st6"
   x1="367.10001"
   y1="297.35001"
   x2="332.17999"
   y2="297.35001"
   id="line549" />
				<g
   id="g559">
					<line
   class="st6"
   x1="355.42001"
   y1="282.78"
   x2="362.37"
   y2="282.78"
   id="line551" />
					<line
   class="st6"
   x1="361.23999"
   y1="280.32999"
   x2="356.38"
   y2="285.19"
   id="line553" />
					<line
   class="st6"
   x1="361.23999"
   y1="285.04001"
   x2="356.44"
   y2="280.26001"
   id="line555" />
					<line
   class="st6"
   x1="358.81"
   y1="279.5"
   x2="358.81"
   y2="285.89999"
   id="line557" />
				</g>
				<g
   id="g569">
					<line
   class="st6"
   x1="346.17001"
   y1="282.82999"
   x2="353.12"
   y2="282.82999"
   id="line561" />
					<line
   class="st6"
   x1="351.98999"
   y1="280.35999"
   x2="347.13"
   y2="285.23001"
   id="line563" />
					<line
   class="st6"
   x1="351.98999"
   y1="285.09"
   x2="347.19"
   y2="280.31"
   id="line565" />
					<line
   class="st6"
   x1="349.56"
   y1="279.56"
   x2="349.56"
   y2="285.95999"
   id="line567" />
				</g>
				<g
   id="g579">
					<line
   class="st6"
   x1="337.32001"
   y1="282.73001"
   x2="344.26999"
   y2="282.73001"
   id="line571" />
					<line
   class="st6"
   x1="343.14001"
   y1="280.26999"
   x2="338.26999"
   y2="285.13"
   id="line573" />
					<line
   class="st6"
   x1="343.14001"
   y1="284.98999"
   x2="338.35001"
   y2="280.19"
   id="line575" />
					<line
   class="st6"
   x1="340.70001"
   y1="279.45001"
   x2="340.70001"
   y2="285.84"
   id="line577" />
				</g>
			</g><line
     class="st6"
     x1="278.10876"
     y1="113.02266"
     x2="243.42877"
     y2="113.02266"
     id="line585" /><line
     class="st6"
     x1="277.30878"
     y1="86.882675"
     x2="277.30878"
     y2="51.932659"
     id="line587" /><rect
     x="-181.31267"
     y="469.76877"
     class="st4"
     width="39.610001"
     height="64.82"
     id="rect589"
     transform="rotate(-90)" /><rect
     x="-301.88266"
     y="242.62875"
     class="st4"
     width="22.41"
     height="75.889999"
     id="rect591"
     transform="rotate(-90)" /><rect
     x="-268.93268"
     y="305.31876"
     class="st4"
     width="22.01"
     height="46.150002"
     id="rect593"
     transform="rotate(-90)" /><rect
     x="-269.33267"
     y="350.65875"
     class="st4"
     width="22.41"
     height="45.080002"
     id="rect595"
     transform="rotate(-90)" /></g><g
   id="g753">
	</g><g
   id="g755">
	</g><g
   id="g757">
	</g><g
   id="g759">
	</g><g
   id="g761">
	</g><g
   id="g763">
	</g>
</svg>
